<svg width="285" height="285" viewBox="0 0 285 285" fill="none" xmlns="http://www.w3.org/2000/svg">
<path d="M0 103.143C0 67.0394 0 48.9877 7.02617 35.1981C13.2066 23.0684 23.0684 13.2066 35.1981 7.02617C48.9877 0 67.0394 0 103.143 0H181.857C217.961 0 236.013 0 249.801 7.02617C261.931 13.2066 271.793 23.0684 277.974 35.1981C285 48.9877 285 67.0394 285 103.143V181.857C285 217.961 285 236.013 277.974 249.801C271.793 261.931 261.931 271.793 249.801 277.974C236.013 285 217.961 285 181.857 285H103.143C67.0394 285 48.9877 285 35.1981 277.974C23.0684 271.793 13.2066 261.931 7.02617 249.801C0 236.013 0 217.961 0 181.857V103.143Z" fill="white"/>
<path d="M243 58L82 186.315V208.222C82 218.592 87.845 227 95.0541 227H179.905C187.115 227 192.959 218.592 192.959 208.222V193.356M243 227L82 98.6852V76.7778C82 66.4078 87.845 58 95.0541 58H179.905C187.115 58 192.959 66.4078 192.959 76.7778V91.6435" stroke="black" stroke-width="29" stroke-linecap="round" stroke-linejoin="round"/>
</svg>
