<svg xmlns="http://www.w3.org/2000/svg" fill="none" viewBox="0 0 100 100"><g clip-path="url(#a)"><path fill="#ae007f" d="M92.78 38.59c.208-1.775.347-3.99 1.041-5.515.528 1.58.703 3.625 1.781 4.815 1.405-.328 2.957-.248 4.398.063-.865 1.14-2.742 1.91-3.867 2.646 1.354 1.14 2.01 2.47 2.755 4.05-1.965-.038-3.755-1.746-5.268-2.666-1.304 1.476-2.222 2.91-4.134 3.44.69-1.478 2.303-2.749 2.507-4.28-1.531-.57-3.427-1.79-4.422-3.03 1.58.096 3.632.297 5.21.484"/><path fill="#97bd00" d="M94.41 49.837c.148-1.29.248-2.904.753-4.01.384 1.15.51 2.63 1.294 3.496 1.011-.239 2.148-.183 3.19.042-.627.822-1.987 1.392-2.798 1.922.985.825 1.465 1.79 1.995 2.94-1.426-.027-2.73-1.27-3.827-1.93-.942 1.066-1.611 2.11-3.003 2.495.503-1.07 1.677-2 1.816-3.105-1.11-.416-2.484-1.301-3.207-2.2 1.137.07 2.633.217 3.778.35"/><path fill="#f07f00" d="M89.527 58.713c.103-.896.173-2.005.52-2.77.263.793.354 1.816.896 2.41.7-.163 1.481-.123 2.206.032-.436.57-1.375.96-1.936 1.329.679.573 1.007 1.237 1.376 2.03-.986-.02-1.882-.875-2.647-1.34-.654.742-1.116 1.46-2.076 1.73.347-.74 1.156-1.376 1.255-2.142-.768-.287-1.72-.898-2.216-1.523.794.046 1.826.148 2.612.24"/><path fill="#005fad" d="M16.522 58.143c-.812 0-10.008 8.961-10.904 10.019-.75.833-1.156 2.364-2.442 2.537-1.367.182-1.68-.35-2.336-1.38-.623-.975-1.377-2.713-.289-3.42 1.05-.675 14.08-12.627 14.487-13.113.505-.518-.05-1.798-.29-3.725-.311-2.479-.47-4.75-.277-7.202.192-2.52.793-5.625 1.446-8.065.4-1.494.168-4.44 2.247-4.53.421.102 3.62 2.314 2.758 5.23-1.245 4.18-2.441 8.88-2.073 13.36.068.863.418 1.613.967 1.216 5.9-4.223 15.137-8.8 17.498-9.615 1.137-.363 2.303-.649 3.482-.793.847.095 1.488.892 2.158 1.456 3.344 2.866-3.151 13.034-3.703 16.129.518 0 1.082-.787 2.073-1.683q1.983-1.799 3.917-3.65c1.853-1.395 3.473-2.674 5.826-2.975 5.657-.719 3.965 7.43 2.689 10.344.728 0 2.51-2.052 3.938-3.406.716-.678 1.512-1.397 2.237-2.067.862-.793 1.261-1.205 1.911-.886.438.124 2.329 1.27 2.434 3.021.09 1.42-.493 2.81-.774 4.17-.24 1.141-.18 4.85 1.356 4.857.608-.44 1.4-.627 2.123-.75 1.165-.195 1.11.186 2.07.542 1.505.557.145 2.696-.648 3.486-1.063 1.06-2.585 1.76-4.11 1.734-1.676-.027-2.992-1.059-3.748-2.509-.413-.793-.945-3.73-1.15-4.601-.204-.856-.028-1.882-.935-1.014-2.563 2.473-5.206 4.77-7.813 7.205-2.871 2.681-5.614-1.002-5.094-4.01.512-2.94 3.05-6.532 3.506-9.447-1.213 0-3.254 2.116-4.026 2.99-1.255 1.42-2.647 2.99-4.062 4.48-1.426 1.497-2.647 2.875-4.079 4.366-1.03 1.076-2.212 2.606-3.953 2.705-.86-.136-2.225-1.564-2.457-3.38-.196-1.518.189-3.185.767-4.58 1.68-4.031 6.275-12.547 7.351-16.783-2.206.215-11.554 4.537-17.743 9.693-1.791 1.478-.136 4.18.611 5.98.802 1.925 3.169 5.405 3.876 5.996 1.853 1.54.372 2.902-1.466 2.805-.78-.552-1.725-1.15-2.457-1.881-.797-.796-1.484-1.704-2.107-2.633-1.27-1.88-2.482-4.055-2.81-6.338m66.51-24.015c-.523-1.949-2.96 1.026-4.18 2.601-3.378 4.347-6.457 13.196-6.954 14.827-1.512 4.998-2.098 11.158 1.174 15.558 1.903 2.566 5.256 2.76 8.543 1.816 1.695-.487 3.393-1.705 3.973-3.027.48-1.103.728-3.154-1.692-1.59-.936.604-2.653 1.27-5.73 1.222-1.031-.02-2.727-1.5-3.181-3.032-.8-2.494-.459-5.825-.459-5.825.696-4.301 2.692-8.961 4.443-12.872.68-1.51 2.748-5.271 3.523-6.47 0 .003.993-1.561.547-3.222z"/></g><defs><clipPath id="a"><path fill="#fff" d="M0 0h100v100H0z"/></clipPath></defs></svg>
